<svg aria-hidden="true" style="position:absolute;width:0;height:0;overflow:hidden" xmlns="http://www.w3.org/2000/svg">
  <defs>
    <symbol id="icon-close" viewBox="0 0 32 32">
      <path  stroke-linejoin="round" stroke-linecap="round" stroke-width="2.286" d="M24 8 8 24M8 8l16 16"/>
    </symbol>
    <symbol id="icon-twitter" viewBox="0 0 32 32">
      <path stroke-linejoin="round" stroke-linecap="round" stroke-width="2.667" d="M30.667 4a14.37 14.37 0 0 1-4.084 2.013l-.103.027a5.973 5.973 0 0 0-10.479 4.004v-.004 1.333a14.154 14.154 0 0 1-6.838-1.55l.08.037C7.15 8.807 4.683 6.297 3.335 4.38c0 0-4.667 12.953 7.333 18.287a15.387 15.387 0 0 1-9.364 2.666l.031.001c12 6.667 26.667 0 26.667-15.333 0-.372-.037-.741-.107-1.107a10.277 10.277 0 0 0 2.758-4.822l.015-.071z"/>
    </symbol>
    <symbol id="icon-play" viewBox="0 0 30 30">
      <path d="M2.825.19 29.174 16 2.825 31.81z"/>
    </symbol>
    <symbol id="icon-burger" viewBox="0 0 32 32">
      <path stroke-linejoin="round" stroke-linecap="round" stroke-width="2.5" d="M4 16h24M4 8h24M4 24h24"/>
    </symbol>
    <symbol id="icon-ukraine" viewBox="0 0 32 32">
      <path fill="gold" style="fill:var(--color3, #ffd700)" d="M31.832 5.058H.242v23.509h31.59V5.058z"/>
      <path fill="#0057b7" style="fill:var(--color4, #0057b7)" d="M.243 5.058h31.589v11.754H.242V5.058z"/>
    </symbol>
    <symbol id="icon-spoon" viewBox="0 0 32 32">
      <path fill="#fd9222" style="fill:var(--color5, #fd9222)" d="M15.452 14.106a5.125 5.125 0 0 1-1.177-3.279v-.003c0-4.324 5.181-8.642 10.362-8.642a5.184 5.184 0 0 1 5.181 5.182c0 5.182-4.317 10.364-8.646 10.364h-.003a5.13 5.13 0 0 1-3.287-1.184l.009.007L5.133 29.312a1.73 1.73 0 0 1-2.444-2.446l-.001.001 12.764-12.761z"/>
    </symbol>

    <symbol id="icon-coin" viewBox="0 0 32 32">
      <path fill="#fd9222" style="fill:var(--color5, #fd9222)" d="M16 2.667c-7.333 0-13.333 6-13.333 13.333s6 13.333 13.333 13.333 13.333-6 13.333-13.333S23.333 2.667 16 2.667zm0 24c-5.867 0-10.667-4.8-10.667-10.667S10.133 5.333 16 5.333 26.667 10.133 26.667 16 21.867 26.667 16 26.667z"/>
      <path fill="#fd9222" style="fill:var(--color5, #fd9222)" d="M17.733 14.667h-3.466c-.667 0-1.2-.534-1.2-1.2 0-.667.533-1.2 1.2-1.2H19.2c.8 0 1.334-.534 1.334-1.334S20 9.6 19.2 9.6h-1.866V8.4c0-.8-.534-1.333-1.334-1.333S14.667 7.6 14.667 8.4v1.2h-.4a3.87 3.87 0 0 0-3.867 3.867 3.87 3.87 0 0 0 3.867 3.866H17.6c.667 0 1.2.534 1.2 1.2 0 .667-.533 1.2-1.2 1.2h-4.933c-.8 0-1.333.534-1.333 1.334s.533 1.333 1.333 1.333h2v1.2c0 .8.533 1.333 1.333 1.333s1.334-.533 1.334-1.333v-1.2h.4a3.87 3.87 0 0 0 3.866-3.867 3.87 3.87 0 0 0-3.867-3.866z"/>
    </symbol>


    <symbol id="scroll" viewBox="0 0 28 28">
      <path style="fill:var(--color1, #fff)" d="M14 28c7.732 0 14-6.268 14-14S21.732 0 14 0 0 6.268 0 14s6.268 14 14 14z"/>
      <path style="fill:var(--color2, #fd9222)" d="M14.473 14.934a.664.664 0 0 1-.946 0l-3.053-3.06a.664.664 0 0 0-.946 0 .668.668 0 0 0 0 .94l3.06 3.06a2.002 2.002 0 0 0 2.826 0l3.06-3.06a.664.664 0 0 0 .144-.723.659.659 0 0 0-.361-.363.66.66 0 0 0-.512 0 .664.664 0 0 0-.217.146l-3.053 3.06z"/>
    </symbol>

    <symbol id="icon-x-close" viewBox="0 0 28 28">
      <path stroke-linejoin="round" stroke-linecap="round" stroke-width="2" d="M21 7 7 21M7 7l14 14"/>
    </symbol>
    
    <symbol id="mastercard" viewBox="0 0 47 32">
      <path fill="#fafafa" style="fill:var(--color1, #fafafa)" d="M4.267.533h38.4A3.733 3.733 0 0 1 46.4 4.266v23.467a3.733 3.733 0 0 1-3.733 3.733h-38.4a3.733 3.733 0 0 1-3.733-3.733V4.266A3.733 3.733 0 0 1 4.267.533z"/>
      <path fill="#ed0006" style="fill:var(--color2, #ed0006)" d="M23.467 23.29a9.69 9.69 0 0 1-6.331 2.345c-5.39 0-9.76-4.396-9.76-9.818s4.37-9.818 9.76-9.818a9.69 9.69 0 0 1 6.331 2.345 9.69 9.69 0 0 1 6.331-2.345c5.391 0 9.76 4.395 9.76 9.818s-4.37 9.818-9.76 9.818a9.69 9.69 0 0 1-6.331-2.345z"/>
      <path fill="#f9a000" style="fill:var(--color3, #f9a000)" d="M23.467 23.29c2.099-1.801 3.429-4.48 3.429-7.472s-1.331-5.672-3.429-7.472a9.69 9.69 0 0 1 6.331-2.345c5.391 0 9.76 4.395 9.76 9.818s-4.37 9.818-9.76 9.818a9.69 9.69 0 0 1-6.331-2.345z"/>
      <path fill="#ff5e00" style="fill:var(--color4, #ff5e00)" d="M23.467 23.29c2.099-1.801 3.429-4.48 3.429-7.472s-1.331-5.672-3.429-7.472c-2.099 1.801-3.429 4.48-3.429 7.472s1.331 5.672 3.429 7.472z"/>
      <path fill="none" stroke="#fafafa" style="stroke:var(--color1, #fafafa)" stroke-width="1.067" d="M4.267.533h38.4A3.733 3.733 0 0 1 46.4 4.266v23.467a3.733 3.733 0 0 1-3.733 3.733h-38.4a3.733 3.733 0 0 1-3.733-3.733V4.266A3.733 3.733 0 0 1 4.267.533z"/>
    </symbol>


    <symbol id="phone" viewBox="0 0 24 24">
      <g id="SVGRepo_bgCarrier" stroke-width="0"></g>
      <g id="SVGRepo_tracerCarrier" stroke-linecap="round" stroke-linejoin="round"></g>
      <g id="SVGRepo_iconCarrier">
        <path
          d="M15.5562 14.5477L15.1007 15.0272C15.1007 15.0272 14.0181 16.167 11.0631 13.0559C8.10812 9.94484 9.1907 8.80507 9.1907 8.80507L9.47752 8.50311C10.1841 7.75924 10.2507 6.56497 9.63424 5.6931L8.37326 3.90961C7.61028 2.8305 6.13596 2.68795 5.26145 3.60864L3.69185 5.26114C3.25823 5.71766 2.96765 6.30945 3.00289 6.96594C3.09304 8.64546 3.81071 12.259 7.81536 16.4752C12.0621 20.9462 16.0468 21.1239 17.6763 20.9631C18.1917 20.9122 18.6399 20.6343 19.0011 20.254L20.4217 18.7584C21.3806 17.7489 21.1102 16.0182 19.8833 15.312L17.9728 14.2123C17.1672 13.7486 16.1858 13.8848 15.5562 14.5477Z"
          fill="#DD3751"></path>
        <path
          d="M13.2595 1.87983C13.3257 1.47094 13.7122 1.19357 14.1211 1.25976C14.1464 1.26461 14.2279 1.27983 14.2705 1.28933C14.3559 1.30834 14.4749 1.33759 14.6233 1.38082C14.9201 1.46726 15.3347 1.60967 15.8323 1.8378C16.8286 2.29456 18.1544 3.09356 19.5302 4.46936C20.906 5.84516 21.705 7.17097 22.1617 8.16725C22.3899 8.66487 22.5323 9.07947 22.6187 9.37625C22.6619 9.52466 22.6912 9.64369 22.7102 9.72901C22.7197 9.77168 22.7267 9.80594 22.7315 9.83125L22.7373 9.86245C22.8034 10.2713 22.5286 10.6739 22.1197 10.7401C21.712 10.8061 21.3279 10.53 21.2601 10.1231C21.258 10.1121 21.2522 10.0828 21.2461 10.0551C21.2337 9.9997 21.2124 9.91188 21.1786 9.79572C21.1109 9.56339 20.9934 9.21806 20.7982 8.79238C20.4084 7.94207 19.7074 6.76789 18.4695 5.53002C17.2317 4.29216 16.0575 3.59117 15.2072 3.20134C14.7815 3.00618 14.4362 2.88865 14.2038 2.82097C14.0877 2.78714 13.9417 2.75363 13.8863 2.7413C13.4793 2.67347 13.1935 2.28755 13.2595 1.87983Z"
          fill="#DD3751"></path>
        <path fill-rule="evenodd" clip-rule="evenodd"
          d="M13.4857 5.3293C13.5995 4.93102 14.0146 4.7004 14.4129 4.81419L14.2069 5.53534C14.4129 4.81419 14.4129 4.81419 14.4129 4.81419L14.4144 4.81461L14.4159 4.81505L14.4192 4.81602L14.427 4.81834L14.4468 4.8245C14.4618 4.82932 14.4807 4.8356 14.5031 4.84357C14.548 4.85951 14.6074 4.88217 14.6802 4.91337C14.8259 4.97581 15.0249 5.07223 15.2695 5.21694C15.7589 5.50662 16.4271 5.9878 17.2121 6.77277C17.9971 7.55775 18.4782 8.22593 18.7679 8.7154C18.9126 8.95991 19.009 9.15897 19.0715 9.30466C19.1027 9.37746 19.1254 9.43682 19.1413 9.48173C19.1493 9.50418 19.1555 9.52301 19.1604 9.53809L19.1665 9.55788L19.1688 9.56563L19.1698 9.56896L19.1702 9.5705C19.1702 9.5705 19.1707 9.57194 18.4495 9.77798L19.1707 9.57194C19.2845 9.97021 19.0538 10.3853 18.6556 10.4991C18.2607 10.6119 17.8492 10.3862 17.7313 9.99413L17.7276 9.98335C17.7223 9.96832 17.7113 9.93874 17.6928 9.89554C17.6558 9.8092 17.5887 9.66797 17.4771 9.47938C17.2541 9.10264 16.8514 8.53339 16.1514 7.83343C15.4515 7.13348 14.8822 6.73078 14.5055 6.50781C14.3169 6.39619 14.1757 6.32909 14.0893 6.29209C14.0461 6.27358 14.0165 6.26254 14.0015 6.25721L13.9907 6.25352C13.5987 6.13564 13.3729 5.72419 13.4857 5.3293Z"
          fill="#DD3751"></path>
      </g>
    </symbol>
 
    <symbol id="map" viewBox="0 0 16 16">
      <g id="SVGRepo_bgCarrier" stroke-width="0"></g>
      <g id="SVGRepo_tracerCarrier" stroke-linecap="round" stroke-linejoin="round"></g>
      <g id="SVGRepo_iconCarrier">
        <path fill-rule="evenodd" clip-rule="evenodd"
          d="M3.37892 10.2236L8 16L12.6211 10.2236C13.5137 9.10788 14 7.72154 14 6.29266V6C14 2.68629 11.3137 0 8 0C4.68629 0 2 2.68629 2 6V6.29266C2 7.72154 2.4863 9.10788 3.37892 10.2236ZM8 8C9.10457 8 10 7.10457 10 6C10 4.89543 9.10457 4 8 4C6.89543 4 6 4.89543 6 6C6 7.10457 6.89543 8 8 8Z"
          fill="#DD3751"></path>
      </g>
    </symbol>

    <symbol id="mail" viewBox="0 -3.5 32 32">
      <g id="SVGRepo_bgCarrier" stroke-width="0"></g>
      <g id="SVGRepo_tracerCarrier" stroke-linecap="round" stroke-linejoin="round"></g>
      <g id="SVGRepo_iconCarrier">
        <title>mail</title>
        <desc>Created with Sketch Beta.</desc>
        <defs></defs>
        <g id="Page-1" stroke="none" stroke-width="1" sketch:type="MSPage">
          <g id="Icon-Set-Filled" sketch:type="MSLayerGroup" transform="translate(-414.000000, -261.000000)"
            fill="#DD3751">
            <path
              d="M430,275.916 L426.684,273.167 L415.115,285.01 L444.591,285.01 L433.235,273.147 L430,275.916 L430,275.916 Z M434.89,271.89 L445.892,283.329 C445.955,283.107 446,282.877 446,282.634 L446,262.862 L434.89,271.89 L434.89,271.89 Z M414,262.816 L414,282.634 C414,282.877 414.045,283.107 414.108,283.329 L425.147,271.927 L414,262.816 L414,262.816 Z M445,261 L415,261 L430,273.019 L445,261 L445,261 Z"
              id="mail" sketch:type="MSShapeGroup"></path>
          </g>
        </g>
      </g>
    </symbol>

    <symbol id="viber" viewBox="0 0 24 24">
      <g id="SVGRepo_bgCarrier" stroke-width="0"></g>
      <g id="SVGRepo_tracerCarrier" stroke-linecap="round" stroke-linejoin="round"></g>
      <g id="SVGRepo_iconCarrier">
        <path
          d="M13 4C12.4477 4 12 4.44772 12 5C12 5.55228 12.4477 6 13 6C14.2728 6 15.2557 6.41989 15.9179 7.08211C16.5801 7.74433 17 8.72725 17 10C17 10.5523 17.4477 11 18 11C18.5523 11 19 10.5523 19 10C19 8.27275 18.4199 6.75567 17.3321 5.66789C16.2443 4.58011 14.7272 4 13 4Z"
          fill="#DD3751"></path>
        <path
          d="M5.014 8.00613C5.12827 7.1024 6.30277 5.87414 7.23488 6.01043L7.23339 6.00894C8.01251 6.15699 8.65217 7.32965 9.07373 8.10246C9.14298 8.22942 9.20635 8.34559 9.26349 8.44465C9.55041 8.95402 9.3641 9.4701 9.09655 9.68787C9.06561 9.7128 9.03317 9.73855 8.9998 9.76504C8.64376 10.0477 8.18114 10.4149 8.28943 10.7834C8.5 11.5 11 14 12.2296 14.7107C12.6061 14.9283 12.8988 14.5057 13.1495 14.1438C13.2087 14.0583 13.2656 13.9762 13.3207 13.9067C13.5301 13.6271 14.0466 13.46 14.5548 13.736C15.3138 14.178 16.0288 14.6917 16.69 15.27C17.0202 15.546 17.0977 15.9539 16.8689 16.385C16.4659 17.1443 15.3003 18.1456 14.4542 17.9421C12.9764 17.5868 7 15.27 5.08033 8.55801C4.97981 8.26236 4.99645 8.13792 5.01088 8.02991L5.014 8.00613Z"
          fill="#DD3751"></path>
        <path
          d="M13 7C12.4477 7 12 7.44772 12 8C12 8.55228 12.4477 9 13 9C13.1748 9 13.4332 9.09745 13.6679 9.33211C13.9025 9.56676 14 9.82523 14 10C14 10.5523 14.4477 11 15 11C15.5523 11 16 10.5523 16 10C16 9.17477 15.5975 8.43324 15.0821 7.91789C14.5668 7.40255 13.8252 7 13 7Z"
          fill="#DD3751"></path>
        <path fill-rule="evenodd" clip-rule="evenodd"
          d="M7.51742 23.8312C7.54587 23.8469 7.57508 23.8612 7.60492 23.874C8.14762 24.1074 8.81755 23.5863 10.1574 22.5442L11.5 21.5C14.1884 21.589 16.514 21.2362 18.312 20.6071C20.3227 19.9035 21.9036 18.3226 22.6072 16.3119C23.5768 13.541 23.5768 8.45883 22.6072 5.68794C21.9036 3.67722 20.3227 2.0963 18.312 1.39271C15.1103 0.272407 8.82999 0.293306 5.68806 1.39271C3.67733 2.0963 2.09642 3.67722 1.39283 5.68794C0.423255 8.45883 0.423255 13.541 1.39283 16.3119C2.09642 18.3226 3.67733 19.9035 5.68806 20.6071C6.08252 20.7451 6.52371 20.8965 7 21C7 22.6974 7 23.5461 7.51742 23.8312ZM9 20.9107V19.7909C9 19.5557 8.836 19.3524 8.60597 19.3032C7.84407 19.1403 7.08676 18.9776 6.34862 18.7193C4.91238 18.2168 3.78316 17.0875 3.2806 15.6513C2.89871 14.5599 2.66565 12.8453 2.66565 10.9999C2.66565 9.15453 2.89871 7.43987 3.2806 6.3485C3.78316 4.91227 4.91238 3.78304 6.34862 3.28048C7.61625 2.83692 9.71713 2.56282 11.9798 2.56032C14.2422 2.55782 16.3561 2.82723 17.6514 3.28048C19.0876 3.78304 20.2169 4.91227 20.7194 6.3485C21.1013 7.43987 21.3344 9.15453 21.3344 10.9999C21.3344 12.8453 21.1013 14.5599 20.7194 15.6513C20.2169 17.0875 19.0876 18.2168 17.6514 18.7193C15.5197 19.4652 13.259 19.549 11.0239 19.4828C10.9071 19.4794 10.7926 19.5165 10.7004 19.5882L9 20.9107Z"
          fill="#DD3751"></path>
      </g>
    </symbol>

    <symbol id="telegram" viewBox="0 0 32 32">
      <g id="SVGRepo_bgCarrier" stroke-width="0"></g>
      <g id="SVGRepo_tracerCarrier" stroke-linecap="round" stroke-linejoin="round"></g>
      <g id="SVGRepo_iconCarrier">
        <title>telegram</title>
        <path
          d="M22.122 10.040c0.006-0 0.014-0 0.022-0 0.209 0 0.403 0.065 0.562 0.177l-0.003-0.002c0.116 0.101 0.194 0.243 0.213 0.403l0 0.003c0.020 0.122 0.031 0.262 0.031 0.405 0 0.065-0.002 0.129-0.007 0.193l0-0.009c-0.225 2.369-1.201 8.114-1.697 10.766-0.21 1.123-0.623 1.499-1.023 1.535-0.869 0.081-1.529-0.574-2.371-1.126-1.318-0.865-2.063-1.403-3.342-2.246-1.479-0.973-0.52-1.51 0.322-2.384 0.221-0.23 4.052-3.715 4.127-4.031 0.004-0.019 0.006-0.040 0.006-0.062 0-0.078-0.029-0.149-0.076-0.203l0 0c-0.052-0.034-0.117-0.053-0.185-0.053-0.045 0-0.088 0.009-0.128 0.024l0.002-0.001q-0.198 0.045-6.316 4.174c-0.445 0.351-1.007 0.573-1.619 0.599l-0.006 0c-0.867-0.105-1.654-0.298-2.401-0.573l0.074 0.024c-0.938-0.306-1.683-0.467-1.619-0.985q0.051-0.404 1.114-0.827 6.548-2.853 8.733-3.761c1.607-0.853 3.47-1.555 5.429-2.010l0.157-0.031zM15.93 1.025c-8.302 0.020-15.025 6.755-15.025 15.060 0 8.317 6.742 15.060 15.060 15.060s15.060-6.742 15.060-15.060c0-8.305-6.723-15.040-15.023-15.060h-0.002q-0.035-0-0.070 0z"
          fill="#DD3751"></path>
      </g>
    </symbol>

    <symbol id="whatsapp" viewBox="0 0 20 20">
      <g id="SVGRepo_bgCarrier" stroke-width="0"></g>
      <g id="SVGRepo_tracerCarrier" stroke-linecap="round" stroke-linejoin="round"></g>
      <g id="SVGRepo_iconCarrier">
        <title>whatsapp [#128]</title>
        <desc>Created with Sketch.</desc>
        <defs></defs>
        <g id="Page-1" stroke="none" stroke-width="1" fill="none" fill-rule="evenodd">
          <g id="Dribbble-Light-Preview" transform="translate(-300.000000, -7599.000000)" fill="#DD3751">
            <g id="icons" transform="translate(56.000000, 160.000000)">
              <path
                d="M259.821,7453.12124 C259.58,7453.80344 258.622,7454.36761 257.858,7454.53266 C257.335,7454.64369 256.653,7454.73172 254.355,7453.77943 C251.774,7452.71011 248.19,7448.90097 248.19,7446.36621 C248.19,7445.07582 248.934,7443.57337 250.235,7443.57337 C250.861,7443.57337 250.999,7443.58538 251.205,7444.07952 C251.446,7444.6617 252.034,7446.09613 252.104,7446.24317 C252.393,7446.84635 251.81,7447.19946 251.387,7447.72462 C251.252,7447.88266 251.099,7448.05372 251.27,7448.3478 C251.44,7448.63589 252.028,7449.59418 252.892,7450.36341 C254.008,7451.35771 254.913,7451.6748 255.237,7451.80984 C255.478,7451.90987 255.766,7451.88687 255.942,7451.69881 C256.165,7451.45774 256.442,7451.05762 256.724,7450.6635 C256.923,7450.38141 257.176,7450.3464 257.441,7450.44643 C257.62,7450.50845 259.895,7451.56477 259.991,7451.73382 C260.062,7451.85686 260.062,7452.43903 259.821,7453.12124 M254.002,7439 L253.997,7439 L253.997,7439 C248.484,7439 244,7443.48535 244,7449 C244,7451.18666 244.705,7453.21526 245.904,7454.86076 L244.658,7458.57687 L248.501,7457.3485 C250.082,7458.39482 251.969,7459 254.002,7459 C259.515,7459 264,7454.51465 264,7449 C264,7443.48535 259.515,7439 254.002,7439"
                id="whatsapp-[#128]"></path>
            </g>
          </g>
        </g>
      </g>
    </symbol>

    <symbol id="icon-youtube" viewBox="0 0 24 28">
    <path d="M15.172 19.437v3.297c0 0.703-0.203 1.047-0.609 1.047-0.234 0-0.469-0.109-0.703-0.344v-4.703c0.234-0.234 0.469-0.344 0.703-0.344 0.406 0 0.609 0.359 0.609 1.047zM20.453 19.453v0.719h-1.406v-0.719c0-0.703 0.234-1.062 0.703-1.062s0.703 0.359 0.703 1.062zM5.359 16.047h1.672v-1.469h-4.875v1.469h1.641v8.891h1.563v-8.891zM9.859 24.938h1.391v-7.719h-1.391v5.906c-0.313 0.438-0.609 0.656-0.891 0.656-0.187 0-0.297-0.109-0.328-0.328-0.016-0.047-0.016-0.219-0.016-0.547v-5.688h-1.391v6.109c0 0.547 0.047 0.906 0.125 1.141 0.125 0.391 0.453 0.578 0.906 0.578 0.5 0 1.031-0.313 1.594-0.953v0.844zM16.562 22.625v-3.078c0-0.719-0.031-1.234-0.141-1.547-0.172-0.578-0.562-0.875-1.109-0.875-0.516 0-1 0.281-1.453 0.844v-3.391h-1.391v10.359h1.391v-0.75c0.469 0.578 0.953 0.859 1.453 0.859 0.547 0 0.938-0.297 1.109-0.859 0.109-0.328 0.141-0.844 0.141-1.563zM21.844 22.469v-0.203h-1.422c0 0.562-0.016 0.875-0.031 0.953-0.078 0.375-0.281 0.562-0.625 0.562-0.484 0-0.719-0.359-0.719-1.078v-1.359h2.797v-1.609c0-0.828-0.141-1.422-0.422-1.813-0.406-0.531-0.953-0.797-1.656-0.797-0.719 0-1.266 0.266-1.672 0.797-0.297 0.391-0.438 0.984-0.438 1.813v2.703c0 0.828 0.156 1.437 0.453 1.813 0.406 0.531 0.953 0.797 1.687 0.797s1.313-0.281 1.687-0.828c0.172-0.25 0.297-0.531 0.328-0.844 0.031-0.141 0.031-0.453 0.031-0.906zM12.344 8.203v-3.281c0-0.719-0.203-1.078-0.672-1.078-0.453 0-0.672 0.359-0.672 1.078v3.281c0 0.719 0.219 1.094 0.672 1.094 0.469 0 0.672-0.375 0.672-1.094zM23.578 19.938c0 1.797-0.016 3.719-0.406 5.469-0.297 1.234-1.297 2.141-2.5 2.266-2.875 0.328-5.781 0.328-8.672 0.328s-5.797 0-8.672-0.328c-1.203-0.125-2.219-1.031-2.5-2.266-0.406-1.75-0.406-3.672-0.406-5.469v0c0-1.813 0.016-3.719 0.406-5.469 0.297-1.234 1.297-2.141 2.516-2.281 2.859-0.313 5.766-0.313 8.656-0.313s5.797 0 8.672 0.313c1.203 0.141 2.219 1.047 2.5 2.281 0.406 1.75 0.406 3.656 0.406 5.469zM7.984 0h1.594l-1.891 6.234v4.234h-1.563v-4.234c-0.141-0.766-0.453-1.859-0.953-3.313-0.344-0.969-0.688-1.953-1.016-2.922h1.656l1.109 4.109zM13.766 5.203v2.734c0 0.828-0.141 1.453-0.438 1.844-0.391 0.531-0.938 0.797-1.656 0.797-0.703 0-1.25-0.266-1.641-0.797-0.297-0.406-0.438-1.016-0.438-1.844v-2.734c0-0.828 0.141-1.437 0.438-1.828 0.391-0.531 0.938-0.797 1.641-0.797 0.719 0 1.266 0.266 1.656 0.797 0.297 0.391 0.438 1 0.438 1.828zM19 2.672v7.797h-1.422v-0.859c-0.562 0.656-1.094 0.969-1.609 0.969-0.453 0-0.781-0.187-0.922-0.578-0.078-0.234-0.125-0.609-0.125-1.172v-6.156h1.422v5.734c0 0.328 0 0.516 0.016 0.547 0.031 0.219 0.141 0.344 0.328 0.344 0.281 0 0.578-0.219 0.891-0.672v-5.953h1.422z"></path>
    </symbol>

<symbol id="icon-youtube1" viewBox="0 0 24 24">
<path d="M21.563 6.637c0.287 1.529 0.448 3.295 0.437 5.125 0.019 1.528-0.123 3.267-0.437 5.021-0.057 0.208-0.15 0.403-0.272 0.575-0.227 0.321-0.558 0.565-0.949 0.675-0.604 0.161-2.156 0.275-3.877 0.341-2.23 0.086-4.465 0.086-4.465 0.086s-2.235 0-4.465-0.085c-1.721-0.066-3.273-0.179-3.866-0.338-0.205-0.057-0.396-0.149-0.566-0.268-0.311-0.22-0.55-0.536-0.67-0.923-0.285-1.526-0.444-3.286-0.433-5.11-0.021-1.54 0.121-3.292 0.437-5.060 0.057-0.208 0.15-0.403 0.272-0.575 0.227-0.321 0.558-0.565 0.949-0.675 0.604-0.161 2.156-0.275 3.877-0.341 2.23-0.085 4.465-0.085 4.465-0.085s2.235 0 4.466 0.078c1.719 0.060 3.282 0.163 3.856 0.303 0.219 0.063 0.421 0.165 0.598 0.299 0.307 0.232 0.538 0.561 0.643 0.958zM23.51 6.177c-0.217-0.866-0.718-1.59-1.383-2.093-0.373-0.282-0.796-0.494-1.249-0.625-0.898-0.22-2.696-0.323-4.342-0.38-2.267-0.079-4.536-0.079-4.536-0.079s-2.272 0-4.541 0.087c-1.642 0.063-3.45 0.175-4.317 0.407-0.874 0.247-1.581 0.77-2.064 1.45-0.27 0.381-0.469 0.811-0.587 1.268-0.006 0.024-0.011 0.049-0.015 0.071-0.343 1.898-0.499 3.793-0.476 5.481-0.012 1.924 0.161 3.831 0.477 5.502 0.006 0.031 0.013 0.062 0.021 0.088 0.245 0.86 0.77 1.567 1.451 2.048 0.357 0.252 0.757 0.443 1.182 0.561 0.879 0.235 2.686 0.347 4.328 0.41 2.269 0.087 4.541 0.087 4.541 0.087s2.272 0 4.541-0.087c1.642-0.063 3.449-0.175 4.317-0.407 0.873-0.247 1.581-0.77 2.063-1.45 0.27-0.381 0.47-0.811 0.587-1.267 0.006-0.025 0.012-0.050 0.015-0.071 0.34-1.884 0.496-3.765 0.476-5.44 0.012-1.925-0.161-3.833-0.477-5.504-0.004-0.020-0.008-0.040-0.012-0.057zM10.75 13.301v-3.102l2.727 1.551zM10.244 15.889l5.75-3.27c0.48-0.273 0.648-0.884 0.375-1.364-0.093-0.164-0.226-0.292-0.375-0.375l-5.75-3.27c-0.48-0.273-1.091-0.105-1.364 0.375-0.090 0.158-0.132 0.33-0.131 0.494v6.54c0 0.552 0.448 1 1 1 0.182 0 0.352-0.049 0.494-0.131z"></path>
</symbol>

<symbol id="icon-tiktok" viewBox="0 0 32 32">
<path d="M16.707 0.027c1.747-0.027 3.48-0.013 5.213-0.027 0.107 2.040 0.84 4.12 2.333 5.56 1.493 1.48 3.6 2.16 5.653 2.387v5.373c-1.92-0.067-3.853-0.467-5.6-1.293-0.76-0.347-1.467-0.787-2.16-1.24-0.013 3.893 0.013 7.787-0.027 11.667-0.107 1.867-0.72 3.72-1.8 5.253-1.747 2.56-4.773 4.227-7.88 4.28-1.907 0.107-3.813-0.413-5.44-1.373-2.693-1.587-4.587-4.493-4.867-7.613-0.027-0.667-0.040-1.333-0.013-1.987 0.24-2.533 1.493-4.96 3.44-6.613 2.213-1.92 5.307-2.84 8.2-2.293 0.027 1.973-0.053 3.947-0.053 5.92-1.32-0.427-2.867-0.307-4.027 0.493-0.84 0.547-1.48 1.387-1.813 2.333-0.28 0.68-0.2 1.427-0.187 2.147 0.32 2.187 2.427 4.027 4.667 3.827 1.493-0.013 2.92-0.88 3.693-2.147 0.253-0.44 0.533-0.893 0.547-1.413 0.133-2.387 0.080-4.76 0.093-7.147 0.013-5.373-0.013-10.733 0.027-16.093z"></path>
</symbol>

<symbol id="icon-facebook" viewBox="0 0 32 32">
<path d="M19 6h5v-6h-5c-3.86 0-7 3.14-7 7v3h-4v6h4v16h6v-16h5l1-6h-6v-3c0-0.542 0.458-1 1-1z"></path>
</symbol>

<symbol id="icon-facebook2" viewBox="0 0 32 32">
<path d="M29 0h-26c-1.65 0-3 1.35-3 3v26c0 1.65 1.35 3 3 3h13v-14h-4v-4h4v-2c0-3.306 2.694-6 6-6h4v4h-4c-1.1 0-2 0.9-2 2v2h6l-1 4h-5v14h9c1.65 0 3-1.35 3-3v-26c0-1.65-1.35-3-3-3z"></path>
</symbol>

<symbol id="icon-instagram" viewBox="0 0 32 32">
<path d="M16 2.881c4.275 0 4.781 0.019 6.462 0.094 1.563 0.069 2.406 0.331 2.969 0.55 0.744 0.288 1.281 0.638 1.837 1.194 0.563 0.563 0.906 1.094 1.2 1.838 0.219 0.563 0.481 1.412 0.55 2.969 0.075 1.688 0.094 2.194 0.094 6.463s-0.019 4.781-0.094 6.463c-0.069 1.563-0.331 2.406-0.55 2.969-0.288 0.744-0.637 1.281-1.194 1.837-0.563 0.563-1.094 0.906-1.837 1.2-0.563 0.219-1.413 0.481-2.969 0.55-1.688 0.075-2.194 0.094-6.463 0.094s-4.781-0.019-6.463-0.094c-1.563-0.069-2.406-0.331-2.969-0.55-0.744-0.288-1.281-0.637-1.838-1.194-0.563-0.563-0.906-1.094-1.2-1.837-0.219-0.563-0.481-1.413-0.55-2.969-0.075-1.688-0.094-2.194-0.094-6.463s0.019-4.781 0.094-6.463c0.069-1.563 0.331-2.406 0.55-2.969 0.288-0.744 0.638-1.281 1.194-1.838 0.563-0.563 1.094-0.906 1.838-1.2 0.563-0.219 1.412-0.481 2.969-0.55 1.681-0.075 2.188-0.094 6.463-0.094zM16 0c-4.344 0-4.887 0.019-6.594 0.094-1.7 0.075-2.869 0.35-3.881 0.744-1.056 0.412-1.95 0.956-2.837 1.85-0.894 0.888-1.438 1.781-1.85 2.831-0.394 1.019-0.669 2.181-0.744 3.881-0.075 1.713-0.094 2.256-0.094 6.6s0.019 4.887 0.094 6.594c0.075 1.7 0.35 2.869 0.744 3.881 0.413 1.056 0.956 1.95 1.85 2.837 0.887 0.887 1.781 1.438 2.831 1.844 1.019 0.394 2.181 0.669 3.881 0.744 1.706 0.075 2.25 0.094 6.594 0.094s4.888-0.019 6.594-0.094c1.7-0.075 2.869-0.35 3.881-0.744 1.050-0.406 1.944-0.956 2.831-1.844s1.438-1.781 1.844-2.831c0.394-1.019 0.669-2.181 0.744-3.881 0.075-1.706 0.094-2.25 0.094-6.594s-0.019-4.887-0.094-6.594c-0.075-1.7-0.35-2.869-0.744-3.881-0.394-1.063-0.938-1.956-1.831-2.844-0.887-0.887-1.781-1.438-2.831-1.844-1.019-0.394-2.181-0.669-3.881-0.744-1.712-0.081-2.256-0.1-6.6-0.1v0z"></path>
<path d="M16 7.781c-4.537 0-8.219 3.681-8.219 8.219s3.681 8.219 8.219 8.219 8.219-3.681 8.219-8.219c0-4.537-3.681-8.219-8.219-8.219zM16 21.331c-2.944 0-5.331-2.387-5.331-5.331s2.387-5.331 5.331-5.331c2.944 0 5.331 2.387 5.331 5.331s-2.387 5.331-5.331 5.331z"></path>
<path d="M26.462 7.456c0 1.060-0.859 1.919-1.919 1.919s-1.919-0.859-1.919-1.919c0-1.060 0.859-1.919 1.919-1.919s1.919 0.859 1.919 1.919z"></path>
</symbol>



  </defs>
</svg>